<?xml version="1.0" encoding="utf-8"?>
<!-- Generator: Adobe Illustrator 27.6.1, SVG Export Plug-In . SVG Version: 6.00 Build 0)  -->
<svg version="1.1" id="Layer_1" xmlns="http://www.w3.org/2000/svg" xmlns:xlink="http://www.w3.org/1999/xlink" x="0px" y="0px"
	 viewBox="0 0 512 512" style="enable-background:new 0 0 512 512;" xml:space="preserve">
<style type="text/css">
	.st0{fill:#FFFFFF;}
	.st1{fill:#00C3FF;}
	.st2{fill:#00BC5E;}
	.st3{fill:#006F91;}
	.st4{fill:none;stroke:#000000;stroke-width:24;stroke-linecap:round;stroke-linejoin:round;}
	.st5{fill:none;stroke:#000000;stroke-width:24;stroke-linecap:round;}
	.st6{fill:#FFE629;stroke:#000000;stroke-width:24;}
	.st7{fill:none;stroke:#000000;stroke-width:24;stroke-linecap:round;stroke-linejoin:round;stroke-miterlimit:10;}
</style>
<path class="st0" d="M64,0h384c35.3,0,64,28.7,64,64v384c0,35.3-28.7,64-64,64H64c-35.3,0-64-28.7-64-64V64C0,28.7,28.7,0,64,0z"/>
<path class="st1" d="M77,327.6l125.4-64.7l80.7,52c0,0,6.8-77.4,6.9-76.7s31.5-7.7,31.5-7.7l15.2-16l30.1,2.4l-9.3-36.7L253,177.4
	l-9.9-14.9l-0.5-97L223.7,56l-105.5,0.4L87.4,70L77,113.1L77,327.6z"/>
<path class="st2" d="M283.1,308.9v38.8l-11.7,7.6l-16.3-28.9l-24.6-7.4l-10.7,20.4l46.8,87.8H109.4l-22.6-13.3L77,334
	c0,0,113-72,121.5-72S283.1,308.9,283.1,308.9z"/>
<polygon class="st3" points="244.7,164.9 264.1,180 342,180.2 352.7,166.2 253.7,67.2 244.7,75.4 "/>
<path class="st4" d="M242.6,56h-99.3c-23.2,0-34.8,0-43.6,4.5c-7.8,4-14.1,10.3-18.1,18.1C77,87.5,77,99,77,122.2v240.1
	c0,23.2,0,34.8,4.5,43.6c4,7.8,10.3,14.1,18.1,18.1c8.9,4.5,20.4,4.5,43.6,4.5h78.6 M242.6,56l124.2,124.2 M242.6,56v91.1
	c0,11.6,0,17.4,2.3,21.8c2,3.9,5.1,7.1,9,9c4.4,2.3,10.2,2.3,21.8,2.3h91.1 M366.8,180.2v41.4"/>
<path class="st5" d="M77,334c0,0,113-72,121.5-72s52.5,27.5,52.5,27.5"/>
<circle class="st6" cx="159.5" cy="169.5" r="35.5"/>
<path class="st7" d="M321.2,334v-81.4c0-10.2-8.9-19.1-19.1-19.1c-10.2,0-19.1,8.9-19.1,19.1v123.3l-28-49.6
	c-5.1-8.9-17.8-11.4-26.7-6.4c-7.6,5.1-10.2,14-7.6,21.6c15.3,40.7,38.1,78.8,67.4,113.1"/>
<path class="st7" d="M321.2,334V233.5c0-10.2,8.9-19.1,19.1-19.1c10.2,0,19.1,8.9,19.1,19.1V334"/>
<path class="st7" d="M359.3,334v-81.4c0-10.2,8.9-19.1,19.1-19.1c10.2,0,19.1,8.9,19.1,19.1V334"/>
<path class="st7" d="M397.5,334v-63.6c0-10.2,8.9-19.1,19.1-19.1c10.2,0,19.1,8.9,19.1,19.1v76.3c0,36.9-7.6,75-22.9,109.3"/>
</svg>
