<svg width="500" height="250" viewBox="0 0 500 250" fill="none" xmlns="http://www.w3.org/2000/svg">
<path d="M468.887 17.9717H16.0886V240.248H468.887V17.9717Z" fill="#009966"/>
<path d="M468.887 242.447H16.0887C14.9894 242.447 14 241.567 14 240.358V17.9715C14 16.8722 14.8794 15.8828 15.9787 15.8828H468.667C469.766 15.8828 470.756 16.7622 470.756 17.8615V240.138C470.866 241.457 469.986 242.447 468.887 242.447ZM18.1773 238.379H466.798V20.0601H18.1773V238.379Z" fill="#093F68"/>
<path d="M236.497 17.9717H34.1171V224.638H236.497V17.9717Z" fill="#093F68"/>
<path d="M236.497 226.727H34.1171C33.0178 226.727 32.0284 225.848 32.0284 224.638V17.9715C32.0284 16.8722 32.9079 15.8828 34.0072 15.8828H236.497C237.596 15.8828 238.585 16.7622 238.585 17.8615V224.528C238.585 225.848 237.596 226.727 236.497 226.727ZM36.2057 222.66H234.518V20.0601H36.2057V222.66Z" fill="#093F68"/>
<path d="M455.146 17.9717H252.766V224.638H455.146V17.9717Z" fill="#093F68"/>
<path d="M455.146 226.727H252.766C251.667 226.727 250.677 225.848 250.677 224.748V18.0816C250.677 16.9823 251.557 15.9929 252.656 15.9929H455.036C456.135 15.9929 457.124 16.8724 457.124 17.9716V224.638C457.234 225.848 456.245 226.727 455.146 226.727ZM254.855 222.66H453.057V20.0603H254.855V222.66Z" fill="#093F68"/>
<path d="M236.497 7.08862H34.1171V213.755H236.497V7.08862Z" fill="white"/>
<path d="M236.497 215.844H34.1171C33.0178 215.844 32.0284 214.965 32.0284 213.755V7.08865C32.0284 5.98936 32.9079 5 34.0072 5H236.497C237.596 5 238.585 5.87944 238.585 6.97873V213.646C238.585 214.855 237.596 215.844 236.497 215.844ZM36.2057 211.777H234.518V9.17731H36.2057V211.777Z" fill="#093F68"/>
<path d="M455.146 7.08862H252.766V213.755H455.146V7.08862Z" fill="white"/>
<path d="M455.146 215.844H252.766C251.667 215.844 250.677 214.965 250.677 213.866V7.19877C250.677 6.09948 251.557 5.11011 252.656 5.11011H455.036C456.135 5.11011 457.124 5.98954 457.124 7.08884V213.756C457.234 214.855 456.245 215.844 455.146 215.844ZM254.855 211.777H453.057V9.1775H254.855V211.777Z" fill="#093F68"/>
<path d="M269.255 194.628C268.486 194.628 267.716 194.188 267.387 193.418C263.209 183.965 253.426 177.918 242.433 177.918C231.44 177.918 221.656 183.965 217.479 193.418C216.929 194.408 215.72 194.848 214.731 194.298C213.741 193.858 213.302 192.759 213.741 191.77C218.578 180.887 229.791 173.851 242.433 173.851C255.075 173.851 266.287 180.887 271.124 191.77C271.564 192.759 271.124 193.968 270.025 194.408C269.805 194.628 269.585 194.628 269.255 194.628Z" fill="#093F68"/>
<path d="M269.255 165.167C268.486 165.167 267.716 164.727 267.387 163.958C263.209 154.504 253.426 148.457 242.433 148.457C231.44 148.457 221.656 154.504 217.479 163.958C216.929 164.947 215.72 165.387 214.731 164.837C213.741 164.397 213.302 163.298 213.741 162.309C218.578 151.426 229.791 144.39 242.433 144.39C255.075 144.39 266.287 151.426 271.124 162.309C271.564 163.298 271.124 164.507 270.025 164.947C269.805 165.057 269.585 165.167 269.255 165.167Z" fill="#093F68"/>
<path d="M269.255 135.706C268.486 135.706 267.716 135.266 267.387 134.497C263.209 125.043 253.426 118.997 242.433 118.997C231.44 118.997 221.656 125.043 217.479 134.497C216.929 135.486 215.72 135.926 214.731 135.376C213.741 134.936 213.302 133.837 213.741 132.848C218.578 121.965 229.791 114.929 242.433 114.929C255.075 114.929 266.287 121.965 271.124 132.848C271.564 133.947 271.124 135.046 270.025 135.486C269.805 135.596 269.585 135.706 269.255 135.706Z" fill="#093F68"/>
<path d="M269.255 106.135C268.486 106.135 267.716 105.695 267.387 104.925C263.209 95.4715 253.426 89.4254 242.433 89.4254C231.44 89.4254 221.656 95.4715 217.479 104.925C217.039 105.915 215.83 106.464 214.731 105.915C213.741 105.475 213.192 104.266 213.741 103.167C218.578 92.2835 229.791 85.248 242.433 85.248C255.075 85.248 266.287 92.2835 271.124 103.167C271.564 104.156 271.124 105.365 270.025 105.805C269.805 106.135 269.585 106.135 269.255 106.135Z" fill="#093F68"/>
<path d="M269.255 76.6738C268.486 76.6738 267.716 76.2341 267.387 75.4646C263.209 66.0107 253.426 59.9646 242.433 59.9646C231.44 59.9646 221.656 66.0107 217.479 75.4646C216.929 76.454 215.72 76.8937 214.731 76.344C213.741 75.9043 213.302 74.805 213.741 73.8157C218.578 62.9327 229.791 55.8972 242.433 55.8972C255.075 55.8972 266.287 62.9327 271.124 73.8157C271.564 74.805 271.124 76.0142 270.025 76.454C269.805 76.5639 269.585 76.6738 269.255 76.6738Z" fill="#093F68"/>
<path d="M269.255 47.2129C268.486 47.2129 267.716 46.7732 267.387 46.0037C263.209 36.5498 253.426 30.5037 242.433 30.5037C231.44 30.5037 221.656 36.5498 217.479 46.0037C216.929 46.993 215.72 47.4327 214.731 46.8831C213.741 46.4434 213.302 45.3441 213.741 44.3547C218.578 33.4717 229.791 26.4363 242.433 26.4363C255.075 26.4363 266.287 33.4717 271.124 44.3547C271.564 45.3441 271.124 46.5533 270.025 46.993C269.805 47.103 269.585 47.2129 269.255 47.2129Z" fill="#093F68"/>
<path d="M136.131 154.613C114.255 154.613 96.4469 136.915 96.4469 114.929C96.4469 92.9432 114.145 75.2446 136.131 75.2446C158.117 75.2446 175.816 92.9432 175.816 114.929C175.816 136.805 158.007 154.613 136.131 154.613ZM136.131 79.4219C116.454 79.4219 100.514 95.3617 100.514 115.039C100.514 134.716 116.454 150.656 136.131 150.656C155.809 150.656 171.748 134.716 171.748 115.039C171.748 95.3617 155.809 79.4219 136.131 79.4219Z" fill="#DFEAEF"/>
<path d="M364.674 121.855H295.638C294.539 121.855 293.55 120.975 293.55 119.876V50.8404C293.55 49.7411 294.429 48.7517 295.529 48.7517H364.564C365.663 48.7517 366.653 49.6311 366.653 50.8404V119.876C366.763 120.975 365.773 121.855 364.674 121.855ZM297.617 117.787H362.585V52.8191H297.617V117.787Z" fill="#DFEAEF"/>
<path d="M415.022 142.741H352.032C350.933 142.741 349.943 141.862 349.943 140.652V68.5389C349.943 67.4396 350.823 66.4502 351.922 66.4502H414.912C416.011 66.4502 417 67.3296 417 68.4289V140.542C417 141.862 416.121 142.741 415.022 142.741ZM354.121 138.674H413.043V70.6275H354.121V138.674Z" fill="#DFEAEF"/>
<path d="M308.72 165.606C308.5 165.606 308.28 165.606 308.06 165.496C306.961 165.167 306.412 163.957 306.741 162.968C314.986 138.234 328.287 128.121 328.947 127.681C329.826 127.021 331.146 127.241 331.805 128.121C332.465 129 332.245 130.319 331.365 130.979C331.255 131.089 318.504 140.982 310.589 164.287C310.369 165.057 309.599 165.606 308.72 165.606Z" fill="#DFEAEF"/>
<path d="M335.763 177.919H295.638C294.539 177.919 293.55 177.039 293.55 175.83C293.55 174.731 294.429 173.741 295.638 173.741H335.763C336.862 173.741 337.851 174.621 337.851 175.83C337.741 177.039 336.862 177.919 335.763 177.919Z" fill="#DFEAEF"/>
<path d="M319.493 190.23H295.639C294.539 190.121 293.66 189.131 293.77 188.032C293.88 187.042 294.649 186.163 295.639 186.163H319.493C320.593 186.273 321.472 187.262 321.362 188.362C321.362 189.351 320.483 190.23 319.493 190.23Z" fill="#DFEAEF"/>
<path d="M431.401 30.3935H399.961C398.862 30.5035 397.873 29.624 397.763 28.5248C397.653 27.4255 398.532 26.4361 399.631 26.3262C399.741 26.3262 399.851 26.3262 399.961 26.3262H431.401C432.5 26.4361 433.38 27.4255 433.27 28.5248C433.16 29.5141 432.39 30.3935 431.401 30.3935Z" fill="#DFEAEF"/>
<path d="M415.681 42.2659H399.961C398.862 42.3758 397.873 41.4964 397.763 40.3971C397.653 39.2978 398.532 38.3084 399.631 38.1985C399.741 38.1985 399.851 38.1985 399.961 38.1985H415.681C416.78 38.0886 417.77 38.968 417.88 40.0673C417.99 41.1666 417.11 42.156 416.011 42.2659C415.901 42.2659 415.791 42.2659 415.681 42.2659Z" fill="#DFEAEF"/>
<path d="M351.263 42.2659C350.163 42.2659 349.174 41.3865 349.174 40.1773C349.174 39.6276 349.394 39.078 349.834 38.6382C350.493 37.9787 366.873 23.1382 384.241 30.9432C385.231 31.4928 385.671 32.7021 385.121 33.6914C384.681 34.5709 383.582 35.0106 382.593 34.6808C367.642 27.9751 352.692 41.4964 352.582 41.7163C352.362 42.046 351.812 42.2659 351.263 42.2659Z" fill="#DFEAEF"/>
<path d="M388.858 190.23H364.674C363.575 190.23 362.585 189.351 362.585 188.252V172.092C362.585 170.993 363.465 170.003 364.674 170.003H388.858C389.958 170.003 390.947 170.883 390.947 172.092V188.252C390.947 189.351 390.068 190.23 388.858 190.23ZM366.763 186.163H386.88V174.071H366.763V186.163Z" fill="#DFEAEF"/>
<path d="M192.965 28.5247H149.433C148.333 28.5247 147.344 27.6453 147.344 26.4361C147.344 25.2269 148.223 24.3474 149.433 24.3474H192.965C194.064 24.3474 195.053 25.2269 195.053 26.4361C195.053 27.6453 194.064 28.5247 192.965 28.5247Z" fill="#DFEAEF"/>
<path d="M192.965 43.4751H149.433C148.333 43.3652 147.454 42.3758 147.564 41.2765C147.674 40.2872 148.443 39.4077 149.433 39.4077H192.965C194.064 39.2978 195.053 40.1772 195.163 41.2765C195.273 42.3758 194.394 43.3652 193.295 43.4751C193.185 43.4751 193.075 43.4751 192.965 43.4751Z" fill="#DFEAEF"/>
<path d="M177.355 58.4253H149.323C148.223 58.3154 147.344 57.326 147.454 56.2267C147.564 55.2374 148.333 54.3579 149.323 54.3579H177.355C178.454 54.248 179.443 55.1274 179.553 56.2267C179.663 57.326 178.784 58.3154 177.684 58.4253C177.574 58.4253 177.465 58.4253 177.355 58.4253Z" fill="#DFEAEF"/>
<path d="M120.851 198.695H54.6737C53.5744 198.695 52.5851 197.816 52.5851 196.716V167.915C52.5851 166.816 53.4645 165.826 54.6737 165.826H120.851C121.95 165.826 122.94 166.706 122.94 167.915V196.606C122.94 197.706 122.06 198.695 120.851 198.695C120.961 198.695 120.961 198.695 120.851 198.695ZM56.6525 194.628H118.872V170.003H56.6525V194.628Z" fill="#DFEAEF"/>
<path d="M79.5177 159.121C78.4184 159.121 77.4291 158.241 77.4291 157.142C77.4291 156.702 77.539 156.263 77.8688 155.823C84.1347 147.578 91.3901 140.323 99.6348 134.057C100.514 133.397 101.833 133.617 102.493 134.497C103.152 135.376 102.933 136.695 102.053 137.355C94.2482 143.401 87.2128 150.436 81.1667 158.241C80.8369 158.791 80.1773 159.121 79.5177 159.121Z" fill="#DFEAEF"/>
<path d="M92.8192 56.5566H58.961C57.8617 56.4467 56.9823 55.4573 57.0922 54.3581C57.2021 53.3687 57.9716 52.4893 58.961 52.4893H92.9291C94.0284 52.5992 94.9078 53.5885 94.7979 54.6878C94.688 55.6772 93.8085 56.5566 92.8192 56.5566Z" fill="#DFEAEF"/>
<path d="M92.8192 71.2871H58.961C57.8617 71.1772 56.9823 70.1878 57.0922 69.0885C57.2021 68.0992 57.9716 67.2197 58.961 67.2197H92.9291C94.0284 67.3297 94.9078 68.319 94.7979 69.4183C94.688 70.4077 93.8085 71.1772 92.8192 71.2871Z" fill="#DFEAEF"/>
<path d="M92.8192 86.0176H82.156C81.0567 86.0176 80.0674 85.1382 80.0674 83.929C80.0674 82.7198 80.9468 81.8403 82.156 81.8403H92.8192C93.9185 81.8403 94.9078 82.7198 94.9078 83.929C94.9078 85.1382 94.0284 86.0176 92.8192 86.0176Z" fill="#DFEAEF"/>
<path d="M69.6241 86.0176H58.961C57.8617 86.0176 56.8723 85.1382 56.8723 83.929C56.8723 82.7198 57.7517 81.8403 58.961 81.8403H69.6241C70.7234 81.8403 71.7128 82.7198 71.7128 83.929C71.7128 85.1382 70.7234 86.0176 69.6241 86.0176Z" fill="#DFEAEF"/>
<path d="M171.199 87.3368C170.099 87.3368 169.11 86.4573 169.11 85.358C169.11 84.4786 169.66 83.7091 170.539 83.3793C171.199 83.1595 185.05 78.2126 187.908 60.4041C188.128 59.3048 189.227 58.5353 190.326 58.8651C191.316 59.085 192.085 60.0743 191.975 61.0637C188.787 81.4006 172.628 87.007 171.858 87.2268C171.638 87.3368 171.419 87.3368 171.199 87.3368Z" fill="#DFEAEF"/>
<path d="M191.536 152.745C188.128 151.096 183.95 151.755 181.202 154.394C179.224 156.372 182.302 159.45 184.28 157.472C186.039 155.713 188.897 155.713 190.656 157.362C190.656 157.362 190.656 157.362 190.766 157.472C192.305 159.45 192.085 162.309 190.216 163.848C189.007 164.837 187.798 165.606 186.479 166.376C185.05 167.255 183.841 168.465 182.851 169.784C180.872 172.752 180.213 176.379 181.092 179.787C181.752 182.535 185.929 181.326 185.27 178.578C184.5 175.17 186.039 171.652 189.007 169.894C192.085 167.805 195.493 165.936 196.043 161.869C196.592 158.351 194.833 154.613 191.536 152.745Z" fill="#DFEAEF"/>
<path d="M183.401 185.833C180.543 185.833 180.543 190.23 183.401 190.23C186.259 190.23 186.259 185.833 183.401 185.833Z" fill="#DFEAEF"/>
<path d="M483.088 241.128C482.758 239.699 446.371 91.0747 441.424 84.4789C427.903 66.4505 385.251 66.0108 377.665 68.0995C370.08 70.1881 319.733 95.6917 317.204 97.8903C311.158 103.057 309.949 116.029 325.449 115.589C331.055 119.546 336.442 123.724 341.609 128.341C351.063 136.585 352.052 139.334 352.052 139.334C352.052 139.334 375.577 161.649 385.69 168.135C385.69 168.135 379.424 182.975 386.24 189.791C393.056 196.607 402.619 200.784 402.619 200.784L412.403 242.997L483.088 241.128Z" fill="#FFC9B0"/>
<path d="M412.293 244.975C411.304 244.975 410.534 244.316 410.314 243.436L400.75 202.213C394.924 199.355 389.538 195.617 384.811 191.22C378.435 184.954 381.733 173.192 383.272 169.014C372.499 161.649 351.612 141.752 350.733 140.872C350.513 140.653 350.293 140.433 350.183 140.103C350.183 140.103 348.864 137.355 340.289 129.88C335.343 125.592 330.176 121.525 324.789 117.677H324.57C315.665 117.677 312.697 113.39 311.708 110.752C309.949 106.135 311.708 99.9788 315.885 96.3512C319.073 93.7129 369.531 68.3192 377.116 66.2306C381.183 65.1313 394.045 64.6916 407.676 66.7802C419.658 68.649 435.378 73.0462 443.073 83.2696C448.46 90.415 484.846 239.259 485.176 240.688C485.396 241.787 484.736 242.887 483.637 243.107C483.527 243.107 483.417 243.107 483.307 243.107L412.293 244.975ZM353.811 138.124C356.449 140.543 377.555 160.55 386.899 166.486C387.779 167.036 388.109 168.025 387.669 169.014C386.02 172.752 383.052 183.635 387.779 188.362C394.265 194.738 403.389 198.915 403.499 199.025C404.048 199.245 404.488 199.795 404.598 200.454L413.942 241.018L480.449 239.259C475.612 219.142 443.953 91.954 439.665 85.9079C426.584 68.4292 384.481 68.4292 378.105 70.298C370.41 72.4965 321.052 97.5604 318.414 99.649C315.665 102.067 314.236 106.355 315.445 109.433C316.875 113.17 321.601 113.83 325.339 113.72C325.779 113.72 326.219 113.83 326.548 114.05C332.265 118.007 337.761 122.294 342.928 126.911C350.733 133.507 353.041 136.805 353.811 138.124Z" fill="#093F68"/>
<path d="M336.222 124.163L332.155 103.057L467.038 76.124C471.765 75.2446 476.382 78.3226 477.261 83.0496L478.031 87.007C478.91 91.734 475.832 96.351 471.105 97.2304L336.222 124.163Z" fill="#F56132"/>
<path d="M336.222 126.142C335.233 126.142 334.463 125.483 334.243 124.493L330.176 103.387C329.956 102.288 330.726 101.188 331.825 100.969L466.708 74.0359C472.534 72.8267 478.251 76.6742 479.35 82.5005V82.6104L480.119 86.5678C481.219 92.3941 477.481 98.0005 471.655 99.2097L336.552 126.142C336.442 126.142 336.332 126.142 336.222 126.142ZM334.463 104.596L337.761 121.635L470.666 95.1423C474.293 94.4827 476.602 90.965 475.942 87.3373L475.173 83.3799C474.513 79.7522 470.995 77.4437 467.368 78.1033L334.463 104.596Z" fill="#093F68"/>
<path d="M336.222 124.164L306.981 121.855L295.878 121.086L305.882 116.139L332.045 103.057L336.222 124.164Z" fill="#FFBC0E"/>
<path d="M336.222 126.142H336.112L295.878 123.064C294.779 122.954 293.899 121.965 294.009 120.865C294.009 120.096 294.449 119.546 295.109 119.217L331.275 101.188C332.265 100.639 333.474 101.078 334.024 102.068C334.133 102.178 334.133 102.397 334.243 102.617L338.311 123.724C338.531 124.823 337.761 125.922 336.662 126.142C336.442 126.142 336.332 126.142 336.222 126.142ZM303.463 119.546L333.694 121.855L330.616 106.025L303.463 119.546Z" fill="#093F68"/>
<path d="M306.981 121.855L295.878 121.085L305.882 116.139L306.981 121.855Z" fill="#093F68"/>
<path d="M306.981 123.943H306.871L295.878 123.064C294.779 122.954 293.899 121.965 294.009 120.865C294.009 120.096 294.449 119.546 295.109 119.217L305.002 114.27C305.992 113.72 307.201 114.16 307.75 115.149C307.86 115.369 307.86 115.479 307.97 115.699L309.07 121.525C309.289 122.624 308.52 123.724 307.421 123.943C307.201 123.943 307.091 123.943 306.981 123.943ZM303.463 119.546L304.453 119.656L304.343 119.107L303.463 119.546Z" fill="#093F68"/>
<path d="M393.165 126.802C393.165 126.802 332.704 105.036 326.988 109.873C321.272 114.71 319.953 120.646 330.396 132.298C340.839 143.951 367.772 155.933 367.772 155.933C367.772 155.933 356.999 189.571 402.619 200.784" fill="#FFC9B0"/>
<path d="M402.619 202.763C402.399 202.763 402.289 202.763 402.07 202.763C385.8 198.695 374.587 191.44 368.761 181.106C364.694 173.741 363.484 165.167 365.243 157.032C359.197 154.284 337.981 143.95 328.747 133.617C322.701 126.911 320.062 121.635 320.392 117.128C320.612 113.94 322.261 111.082 325.559 108.333C331.605 103.277 375.357 118.227 393.825 124.823C394.924 125.153 395.584 126.252 395.254 127.351C394.924 128.45 393.825 129.11 392.726 128.78C392.616 128.78 392.506 128.67 392.506 128.67C364.584 118.557 332.045 109.103 328.197 111.521C325.779 113.5 324.679 115.369 324.57 117.457C324.35 120.865 326.658 125.262 331.825 130.979C341.828 142.192 368.321 153.954 368.541 154.064C369.531 154.504 369.97 155.603 369.641 156.592C367.662 164.287 368.651 172.312 372.389 179.238C377.555 188.472 387.889 195.067 403.059 198.805C404.158 199.025 404.818 200.124 404.598 201.223C404.378 202.103 403.499 202.763 402.619 202.763Z" fill="#093F68"/>
</svg>
