<svg width="500" height="250" viewBox="0 0 500 250" fill="none" xmlns="http://www.w3.org/2000/svg">
<g clip-path="url(#clip0_248_143)">
<path d="M139.107 181.341C139.107 181.341 212.396 153.539 206.145 113.019C199.893 72.4991 77.4554 69.317 79.7093 169.898L139.118 181.341L139.107 181.341Z" fill="#F4A28C"/>
<path opacity="0.1" d="M147.817 87.1855C126.502 89.7556 104.462 100.271 91.4177 121.423C85.9103 130.337 82.0144 141.168 80.4233 154.08C79.8318 159.036 79.5564 164.309 79.6992 169.888L139.118 181.352C139.118 181.352 212.397 153.539 206.155 113.029C204.329 101.219 192.641 92.6011 177.047 88.7561C168.215 86.5838 158.088 85.9718 147.817 87.1855Z" fill="#000001"/>
<path opacity="0.1" d="M147.817 87.1858C136.099 97.252 129.245 115.182 111.091 118.251C104.605 119.353 97.7716 120.444 91.4279 121.423C85.9205 130.337 82.0245 141.168 80.4335 154.08L118.628 148.185L179.118 90.888C179.118 90.888 178.373 89.9905 177.037 88.7564C168.205 86.584 158.077 85.9721 147.807 87.1858L147.817 87.1858Z" fill="#000001"/>
<path d="M226.122 80.2235L233.654 103.459L185.678 119.011L178.146 95.7747L226.122 80.2235Z" fill="#009966"/>
<path d="M356.435 50.3369C368.827 88.5622 347.878 129.592 309.663 141.984C271.438 154.375 230.408 133.427 218.016 95.2119C205.624 56.9865 226.573 15.9565 264.788 3.56492C303.013 -8.82669 344.043 12.1218 356.435 50.3369ZM235.171 89.6433C244.492 118.394 275.344 134.141 304.094 124.829C332.845 115.508 348.592 84.656 339.281 55.9054C329.959 27.1549 299.107 11.4078 270.357 20.7194C241.606 30.0411 225.859 60.8927 235.171 89.6433Z" fill="#24285B"/>
<path d="M191.408 89.6634L199.999 116.169C201.09 119.534 199.247 123.146 195.882 124.237L126.358 146.773C122.993 147.863 119.381 146.02 118.29 142.655L109.698 116.149C108.608 112.784 110.451 109.172 113.816 108.082L183.34 85.5456C186.705 84.4548 190.317 86.2984 191.408 89.6634Z" fill="#24285B"/>
<path d="M162.351 145.258C162.351 145.258 189.51 109.042 184.584 95.9666C180.515 85.1864 158.332 88.5928 143.605 115.732C137.568 126.869 127.175 134.906 114.814 137.66C104.595 139.944 92.8354 145.247 85.176 157.16C69.0618 182.208 88.5927 195.936 114.59 189.745C140.597 183.544 148.195 180.923 162.341 145.258L162.351 145.258Z" fill="#F4A28C"/>
<path d="M12.2439 161.596L87.5012 144.35L114.824 201.27L12.2439 250L12.2439 161.596Z" fill="#009966"/>
<path opacity="0.1" d="M12.244 161.596L87.5013 144.35L100.546 171.53L12.244 196.895L12.244 161.596Z" fill="#000001"/>
</g>
<defs>
<clipPath id="clip0_248_143">
<rect width="500" height="250" fill="white"/>
</clipPath>
</defs>
</svg>
